<svg width="804" height="311" viewBox="0 0 804 311" fill="none" xmlns="http://www.w3.org/2000/svg">
<path d="M139.344 44.183C105.338 35.9356 57.765 11.5368 38.2291 0.368393C36.297 -2.85327 30.5006 15.8324 34.3648 26.1417C38.2291 36.451 49.1778 47.4047 63.3467 58.3584C77.5157 69.312 118.09 81.5543 136.768 88.642C151.709 94.3121 151.151 98.7365 149.004 100.24C115.514 97.0183 33.7208 100.24 25.9923 100.24C19.8095 100.24 12.2527 107.542 9.24715 111.194C5.59757 116.993 -0.155877 130.653 6.02693 138.9C12.2097 147.147 58.4091 164.673 80.7359 172.405L88.4644 177.56C89.5378 180.137 90.1389 185.55 83.9561 186.581C76.2276 187.869 68.4991 190.447 42.7374 199.467C16.9757 208.488 -2.34561 227.174 0.230558 234.261C2.29149 239.931 13.1114 245.215 18.2638 247.148C22.3856 240.962 37.585 228.247 44.6695 222.663C94.2608 232.328 117.446 263.901 117.446 267.122C117.446 270.344 98.1251 281.942 100.701 281.942C103.277 281.942 109.074 281.942 110.362 284.519C111.392 286.581 122.813 287.956 128.395 288.385C139.129 287.741 164.204 287.483 178.63 291.607C196.664 296.762 187.003 309.648 190.223 310.937C193.443 312.226 220.493 293.54 207.612 278.076C194.731 262.612 82.668 230.395 80.7359 227.174C78.8038 223.952 82.024 213.643 85.8883 212.998C89.7525 212.354 162.529 201.4 190.223 196.89C212.378 193.282 208.042 182.07 203.104 176.916C189.579 156.297 147.072 145.343 128.395 141.477C113.453 138.385 103.277 129.879 100.057 126.013C112.294 113.771 121.311 109.905 160.597 109.261C192.027 108.745 241.961 112.053 263 113.771C251.407 81.5543 232.086 75.7553 228.866 72.5337C225.646 69.312 181.851 54.4924 139.344 44.183Z" fill="url(#paint0_linear)"/>
<path fill-rule="evenodd" clip-rule="evenodd" d="M672.047 147.03C678.581 146.354 693.392 149.051 700.453 165.221C700.48 165.284 700.495 165.353 700.495 165.421V202.071C700.495 202.348 700.271 202.571 699.995 202.571H678.82C670.918 201.668 654.165 195.933 650.372 180.219C649.017 173.672 650.372 157.708 659.177 152.448C659.355 152.315 659.528 152.184 659.697 152.056C662.097 150.235 663.82 148.928 672.047 147.03ZM690.156 166.306C690.223 166.393 690.261 166.502 690.261 166.612L690.261 192.359C690.261 192.635 690.037 192.859 689.761 192.859H687.551C669.94 191.505 657.611 181.069 661.135 169.83C665.042 157.369 679.331 152.252 690.156 166.306Z" fill="black"/>
<path d="M672.047 147.03L671.995 146.532L671.965 146.535L671.934 146.542L672.047 147.03ZM678.82 202.571L678.763 203.068L678.792 203.071H678.82V202.571ZM650.372 180.219L649.882 180.321L649.884 180.329L649.886 180.337L650.372 180.219ZM659.177 152.448L659.434 152.878L659.456 152.864L659.477 152.848L659.177 152.448ZM659.697 152.056L659.395 151.657L659.395 151.657L659.697 152.056ZM687.551 192.859L687.513 193.358L687.532 193.359H687.551V192.859ZM661.135 169.83L661.612 169.979L661.612 169.979L661.135 169.83ZM690.261 166.612L689.761 166.612L690.261 166.612ZM690.156 166.306L689.76 166.611L690.156 166.306ZM690.261 192.359L690.761 192.359L690.261 192.359ZM700.453 165.221L700.911 165.021L700.453 165.221ZM700.911 165.021C693.739 148.596 678.679 145.841 671.995 146.532L672.098 147.527C678.484 146.866 693.045 149.506 699.995 165.421L700.911 165.021ZM700.995 202.071V165.421H699.995V202.071H700.995ZM678.82 203.071H699.995V202.071H678.82V203.071ZM649.886 180.337C651.822 188.356 657.064 193.815 662.791 197.374C668.512 200.929 674.749 202.609 678.763 203.068L678.877 202.075C674.989 201.63 668.898 199.992 663.319 196.525C657.746 193.062 652.715 187.797 650.858 180.102L649.886 180.337ZM658.921 152.019C654.343 154.753 651.758 160.225 650.478 165.737C649.194 171.263 649.188 176.965 649.882 180.321L650.862 180.118C650.201 176.926 650.195 171.372 651.452 165.964C652.711 160.543 655.206 155.402 659.434 152.878L658.921 152.019ZM659.395 151.657C659.226 151.786 659.054 151.916 658.877 152.048L659.477 152.848C659.657 152.714 659.83 152.582 659.999 152.454L659.395 151.657ZM671.934 146.542C667.808 147.494 665.285 148.305 663.482 149.116C661.668 149.932 660.599 150.744 659.395 151.657L659.999 152.454C661.195 151.547 662.188 150.795 663.892 150.028C665.608 149.256 668.059 148.463 672.159 147.517L671.934 146.542ZM690.761 192.359L690.761 166.612L689.761 166.612L689.761 192.359L690.761 192.359ZM687.551 193.359H689.761V192.359H687.551V193.359ZM660.658 169.68C658.82 175.541 661.141 181.155 666.091 185.43C671.032 189.698 678.627 192.674 687.513 193.358L687.59 192.361C678.865 191.69 671.489 188.771 666.744 184.673C662.007 180.581 659.926 175.358 661.612 169.979L660.658 169.68ZM690.552 166.001C685.054 158.863 678.598 156.508 672.953 157.635C667.329 158.757 662.656 163.308 660.658 169.68L661.612 169.979C663.521 163.891 667.945 159.653 673.149 158.615C678.332 157.581 684.433 159.696 689.76 166.611L690.552 166.001ZM690.761 166.612C690.761 166.39 690.685 166.174 690.552 166.001L689.76 166.611C689.759 166.611 689.76 166.612 689.76 166.613C689.761 166.615 689.761 166.615 689.761 166.612L690.761 166.612ZM689.761 192.359L689.761 192.359V193.359C690.313 193.359 690.761 192.912 690.761 192.359L689.761 192.359ZM699.995 202.071L699.995 202.071V203.071C700.547 203.071 700.995 202.624 700.995 202.071H699.995ZM699.995 165.421L699.995 165.421H700.995C700.995 165.283 700.966 165.146 700.911 165.021L699.995 165.421Z" fill="#9B9B9B"/>
<path d="M257.692 199.862H246.5C246.224 199.862 246 199.638 246 199.362V198.507V166.714C246 166.686 246.002 166.659 246.007 166.632C247.703 156.632 261.771 148.578 269.707 148.384C274.855 148.259 284.962 152.273 289.704 155.603C289.895 155.737 290.151 155.725 290.332 155.576C294.72 151.934 302.678 149.292 306.233 148.397C306.268 148.388 306.302 148.384 306.338 148.383C323.574 147.868 331.064 158.918 332.681 164.576C332.694 164.62 332.7 164.664 332.7 164.709V199.362C332.7 199.638 332.476 199.862 332.2 199.862H322.375C322.094 199.862 321.868 199.637 321.875 199.356C322.1 190.535 322.394 171.55 321.862 164.64C321.497 159.899 314.411 156.512 308.993 156.512C304.678 156.512 296.874 161.21 296.133 164.593C296.126 164.625 296.123 164.657 296.123 164.69V199.362C296.123 199.638 295.899 199.862 295.623 199.862H285.108C284.832 199.862 284.608 199.638 284.608 199.362V164.676C284.608 164.652 284.607 164.632 284.603 164.608C284.305 162.965 278.432 155.829 271.062 156.512C262.413 157.314 258.344 163.383 258.192 164.64C258 166.23 258.186 188.352 258.192 199.37C258.192 199.647 257.968 199.862 257.692 199.862Z" fill="black" stroke="#9B9B9B"/>
<path d="M720.993 201.236H709.801C709.524 201.236 709.301 201.012 709.301 200.736V199.881V168.087C709.301 168.06 709.303 168.033 709.307 168.005C711.004 158.005 725.071 149.951 733.007 149.758C738.156 149.632 748.262 153.647 753.004 156.976C753.196 157.111 753.452 157.099 753.632 156.949C758.02 153.307 765.979 150.665 769.534 149.771C769.568 149.762 769.603 149.757 769.638 149.756C786.874 149.241 794.365 160.292 795.982 165.95C795.994 165.994 796 166.037 796 166.083V200.736C796 201.012 795.776 201.236 795.5 201.236H785.676C785.395 201.236 785.169 201.011 785.176 200.73C785.4 191.909 785.694 172.923 785.163 166.014C784.798 161.273 777.712 157.886 772.293 157.886C767.978 157.886 760.174 162.583 759.434 165.967C759.427 165.999 759.424 166.031 759.424 166.064V200.736C759.424 201.012 759.2 201.236 758.924 201.236H748.409C748.133 201.236 747.909 201.012 747.909 200.736V166.05C747.909 166.026 747.908 166.005 747.904 165.982C747.605 164.339 741.732 157.203 734.362 157.886C725.713 158.688 721.644 164.757 721.493 166.014C721.301 167.604 721.487 189.725 721.493 200.744C721.493 201.02 721.269 201.236 720.993 201.236Z" fill="black" stroke="#9B9B9B"/>
<path fill-rule="evenodd" clip-rule="evenodd" d="M541.32 124.5C541.32 124.224 541.096 124 540.82 124H529.628C529.352 124 529.128 124.224 529.128 124.5V148.562C529.128 148.838 528.904 149.062 528.628 149.062H518.113C517.837 149.062 517.613 149.285 517.613 149.562V155.335C517.613 155.611 517.837 155.835 518.113 155.835H528.628C528.904 155.835 529.128 156.059 529.128 156.335V200.039C529.128 200.316 529.352 200.539 529.628 200.539H540.82C541.096 200.539 541.32 200.316 541.32 200.039V156.335C541.32 156.059 541.544 155.835 541.82 155.835H551.658C551.934 155.835 552.158 155.611 552.158 155.335V149.562C552.158 149.285 551.934 149.062 551.658 149.062H541.82C541.544 149.062 541.32 148.838 541.32 148.562V124.5ZM435.655 200.039C435.655 200.316 435.431 200.539 435.155 200.539H423.963C423.687 200.539 423.463 200.316 423.463 200.039V167.35C425.044 154.617 440.7 147.403 448.485 147.031C448.512 147.03 448.539 147.031 448.566 147.034C464.811 148.975 470.915 159.429 471.554 165.318V200.039C471.554 200.316 471.33 200.539 471.054 200.539H460.539C460.263 200.539 460.039 200.316 460.039 200.039V165.399C460.039 165.345 460.031 165.293 460.014 165.243C458.869 161.834 456.055 155.297 448.525 155.835C441.01 156.372 436.863 162.269 435.688 165.233C435.665 165.291 435.655 165.349 435.655 165.411V200.039ZM390.451 201.894C390.727 201.894 390.951 201.67 390.951 201.394V165.399C390.951 165.345 390.943 165.294 390.926 165.243C387.953 156.426 376.939 141.231 356.406 150.416C350.988 153.351 340.421 162.473 341.505 175.478C342.803 191.058 357.167 197.927 359.552 199.068L359.553 199.069L359.554 199.069L359.558 199.071C359.659 199.119 359.738 199.157 359.793 199.185C360.87 199.723 366.943 201.199 369.899 201.882C369.936 201.89 369.972 201.894 370.01 201.894H390.451ZM401.111 148.884C401.111 148.608 401.335 148.384 401.611 148.384H413.48C413.756 148.384 413.98 148.608 413.98 148.884V200.039C413.98 200.316 413.756 200.539 413.48 200.539H401.611C401.335 200.539 401.111 200.316 401.111 200.039V148.884ZM489.167 161.883C489.166 161.914 489.167 161.945 489.172 161.976C489.622 164.774 492.33 170.154 505.832 172.426C507.346 172.681 508.898 173.035 510.04 174.061C514.927 178.451 517.746 189.958 508.131 197.83C502.014 201.723 494.983 201.05 491.163 200.684L491.163 200.684C490.33 200.605 489.65 200.539 489.165 200.539C486.58 200.539 482.144 198.895 479.978 197.96C479.797 197.881 479.682 197.703 479.682 197.505V191.42C479.682 191 480.21 190.704 480.593 190.875C482.262 191.618 485.509 192.624 487.592 193.27C488.272 193.481 488.828 193.654 489.165 193.766C491.197 194.443 501.357 193.766 504.744 191.057C508.13 188.347 505.662 180.151 497.97 178.187C497.231 177.998 496.32 177.835 495.3 177.652C490.243 176.744 482.5 175.354 479.682 168.027C476.296 159.222 481.714 154.48 486.456 151.094C487.689 150.213 501.948 144.922 512.658 152.299C512.792 152.391 512.872 152.545 512.872 152.707V158.287C512.872 158.687 512.425 158.931 512.08 158.73C508.992 156.93 502.929 154.48 499.325 154.48C499.298 154.48 499.257 154.479 499.204 154.478C497.927 154.452 489.472 154.278 489.167 161.883ZM569.815 165.217C569.785 165.282 569.768 165.355 569.768 165.428V200.039C569.768 200.316 569.545 200.539 569.268 200.539H557.399C557.123 200.539 556.899 200.316 556.899 200.039V166.059C556.899 166.017 556.904 165.976 556.915 165.935C558.296 160.717 563.841 149.739 572.478 149.739H590.943C591.219 149.739 591.443 149.963 591.443 150.239V154.658C591.443 154.934 591.219 155.158 590.943 155.158H579.293C579.265 155.158 579.238 155.16 579.211 155.165C576.52 155.633 573.037 158.283 569.815 165.217ZM642.761 164.91C642.856 165.144 642.753 165.406 642.529 165.524L609.617 182.804C609.347 182.945 609.264 183.29 609.457 183.526C612.069 186.715 618.507 190.765 622.456 190.414C626.574 190.048 632.736 189.089 638.761 182.359C638.823 182.29 638.905 182.237 638.994 182.211C640.249 181.842 641.025 181.674 642.921 182.251C643.393 182.465 643.25 185.38 642.921 186.315C642.278 188.142 638.18 193.089 631.406 195.798C624.633 198.507 615.922 197.729 608.377 195.121C599.44 192.031 595.49 180.374 595.507 172.768C595.733 165.995 600.113 151.771 615.828 149.062C631.221 146.407 640.072 158.27 642.761 164.91ZM606.835 179.531C606.994 179.659 607.216 179.661 607.388 179.55L632.956 162.922C633.211 162.756 633.262 162.405 633.057 162.181C628.338 157.006 617.857 149.892 608.105 159.71C603.551 164.295 601.975 169.647 603.099 173.393C603.837 175.849 605.318 178.312 606.835 179.531ZM381.363 166.536C381.43 166.622 381.468 166.732 381.468 166.841L381.468 192.589C381.468 192.865 381.244 193.089 380.968 193.089H378.759C361.148 191.734 348.818 181.299 352.342 170.059C356.249 157.599 370.538 152.481 381.363 166.536Z" fill="black"/>
<path d="M423.463 167.35L422.967 167.288L422.963 167.319V167.35H423.463ZM471.554 165.318H472.054V165.291L472.051 165.264L471.554 165.318ZM448.525 155.835L448.489 155.336L448.489 155.336L448.525 155.835ZM356.406 150.416L356.202 149.96L356.185 149.968L356.168 149.977L356.406 150.416ZM341.505 175.478L341.007 175.519L341.007 175.519L341.505 175.478ZM359.552 199.068L359.336 199.519L359.338 199.52L359.552 199.068ZM359.553 199.069L359.768 198.617L359.768 198.617L359.553 199.069ZM359.554 199.069L359.77 198.618L359.769 198.618L359.554 199.069ZM359.558 199.071L359.774 198.62L359.774 198.62L359.558 199.071ZM359.793 199.185L359.569 199.632L359.569 199.632L359.793 199.185ZM505.832 172.426L505.749 172.919L505.749 172.919L505.832 172.426ZM510.04 174.061L510.375 173.689L510.375 173.689L510.04 174.061ZM508.131 197.83L508.399 198.252L508.424 198.236L508.447 198.217L508.131 197.83ZM491.163 200.684L491.081 201.177L491.098 201.18L491.116 201.182L491.163 200.684ZM491.163 200.684L491.245 200.191L491.228 200.188L491.211 200.187L491.163 200.684ZM487.592 193.27L487.444 193.748L487.444 193.748L487.592 193.27ZM489.165 193.766L489.007 194.24L489.007 194.24L489.165 193.766ZM504.744 191.057L505.056 191.447L505.056 191.447L504.744 191.057ZM497.97 178.187L498.094 177.703L498.094 177.703L497.97 178.187ZM495.3 177.652L495.388 177.16L495.388 177.16L495.3 177.652ZM479.682 168.027L480.149 167.848L480.149 167.848L479.682 168.027ZM486.456 151.094L486.746 151.5L486.746 151.5L486.456 151.094ZM499.204 154.478L499.214 153.978L499.214 153.978L499.204 154.478ZM622.456 190.414L622.501 190.912L622.501 190.912L622.456 190.414ZM642.921 182.251L643.127 181.796L643.098 181.782L643.067 181.773L642.921 182.251ZM642.921 186.315L643.393 186.481L643.393 186.481L642.921 186.315ZM608.377 195.121L608.213 195.593L608.213 195.593L608.377 195.121ZM595.507 172.768L595.008 172.752L595.007 172.76L595.007 172.767L595.507 172.768ZM615.828 149.062L615.743 148.569L615.743 148.569L615.828 149.062ZM608.105 159.71L608.46 160.062L608.46 160.062L608.105 159.71ZM603.099 173.393L603.578 173.249L603.578 173.249L603.099 173.393ZM378.759 193.089L378.72 193.587L378.739 193.589H378.759V193.089ZM352.342 170.059L351.865 169.91L352.342 170.059ZM607.388 179.55L607.66 179.969L607.388 179.55ZM606.835 179.531L606.521 179.921L606.835 179.531ZM632.956 162.922L633.229 163.341L632.956 162.922ZM633.057 162.181L632.688 162.517L633.057 162.181ZM638.761 182.359L639.133 182.693L638.761 182.359ZM638.994 182.211L638.853 181.731L638.994 182.211ZM579.211 155.165L579.125 154.672L579.211 155.165ZM480.593 190.875L480.389 191.332L480.593 190.875ZM479.978 197.96L479.78 198.419L479.978 197.96ZM489.172 161.976L489.666 161.897L489.172 161.976ZM489.167 161.883L488.667 161.863L489.167 161.883ZM390.926 165.243L390.452 165.402L390.926 165.243ZM435.688 165.233L436.153 165.418L435.688 165.233ZM460.014 165.243L460.488 165.083L460.014 165.243ZM642.529 165.524L642.761 165.966L642.529 165.524ZM642.761 164.91L643.225 164.722L642.761 164.91ZM609.617 182.804L609.384 182.361L609.617 182.804ZM609.457 183.526L609.844 183.209L609.457 183.526ZM448.485 147.031L448.461 146.532L448.485 147.031ZM448.566 147.034L448.625 146.538L448.566 147.034ZM556.915 165.935L557.398 166.063L556.915 165.935ZM569.815 165.217L570.269 165.427L569.815 165.217ZM381.468 166.841L380.968 166.841L381.468 166.841ZM381.363 166.536L380.967 166.841L381.363 166.536ZM381.468 192.589L380.968 192.589L381.468 192.589ZM369.899 201.882L369.787 202.369L369.899 201.882ZM512.08 158.73L512.331 158.298L512.08 158.73ZM512.658 152.299L512.374 152.711L512.374 152.711L512.658 152.299ZM529.628 124.5H540.82V123.5H529.628V124.5ZM529.628 148.562V124.5H528.628V148.562H529.628ZM518.113 149.562H528.628V148.562H518.113V149.562ZM518.113 155.335V149.562H517.113V155.335H518.113ZM528.628 155.335H518.113V156.335H528.628V155.335ZM529.628 200.039V156.335H528.628V200.039H529.628ZM540.82 200.039H529.628V201.039H540.82V200.039ZM540.82 156.335V200.039H541.82V156.335H540.82ZM551.658 155.335H541.82V156.335H551.658V155.335ZM551.658 149.562V155.335H552.658V149.562H551.658ZM541.82 149.562H551.658V148.562H541.82V149.562ZM540.82 124.5V148.562H541.82V124.5H540.82ZM423.963 201.039H435.155V200.039H423.963V201.039ZM422.963 167.35V200.039H423.963V167.35H422.963ZM448.461 146.532C444.462 146.723 438.514 148.657 433.367 152.141C428.218 155.626 423.782 160.724 422.967 167.288L423.959 167.411C424.725 161.242 428.908 156.367 433.928 152.969C438.95 149.57 444.723 147.711 448.509 147.531L448.461 146.532ZM472.051 165.264C471.386 159.134 465.092 148.505 448.625 146.538L448.506 147.531C464.53 149.445 470.444 159.724 471.057 165.372L472.051 165.264ZM472.054 200.039V165.318H471.054V200.039H472.054ZM460.539 201.039H471.054V200.039H460.539V201.039ZM459.539 165.399V200.039H460.539V165.399H459.539ZM448.56 156.334C452.149 156.077 454.591 157.497 456.292 159.393C458.01 161.308 458.973 163.715 459.54 165.402L460.488 165.083C459.91 163.362 458.894 160.796 457.036 158.725C455.161 156.634 452.43 155.055 448.489 155.336L448.56 156.334ZM436.153 165.418C437.289 162.553 441.31 156.852 448.56 156.334L448.489 155.336C440.71 155.892 436.437 161.986 435.223 165.049L436.153 165.418ZM436.155 200.039V165.411H435.155V200.039H436.155ZM390.451 165.399V201.394H391.451V165.399H390.451ZM356.611 150.873C366.73 146.345 374.435 147.843 379.976 151.496C385.55 155.171 388.991 161.068 390.452 165.402L391.399 165.083C389.888 160.6 386.335 154.491 380.526 150.661C374.684 146.809 366.615 145.301 356.202 149.96L356.611 150.873ZM342.003 175.436C341.474 169.087 343.786 163.674 346.918 159.47C350.054 155.261 353.993 152.292 356.644 150.856L356.168 149.977C353.401 151.475 349.347 154.535 346.116 158.872C342.881 163.214 340.452 168.864 341.007 175.519L342.003 175.436ZM359.768 198.617C357.369 197.47 343.276 190.708 342.003 175.436L341.007 175.519C342.331 191.408 356.964 198.385 359.336 199.519L359.768 198.617ZM359.768 198.617L359.767 198.617L359.338 199.52L359.339 199.52L359.768 198.617ZM359.769 198.618L359.768 198.617L359.338 199.52L359.339 199.521L359.769 198.618ZM359.774 198.62L359.77 198.618L359.339 199.52L359.342 199.522L359.774 198.62ZM360.017 198.738C359.956 198.707 359.873 198.667 359.774 198.62L359.342 199.522C359.445 199.571 359.519 199.607 359.569 199.632L360.017 198.738ZM370.012 201.394C368.536 201.054 366.284 200.515 364.266 199.995C363.258 199.735 362.311 199.48 361.551 199.257C360.775 199.03 360.238 198.848 360.017 198.738L359.569 199.632C359.886 199.79 360.513 199.995 361.27 200.217C362.045 200.444 363.003 200.702 364.017 200.963C366.044 201.486 368.306 202.027 369.787 202.369L370.012 201.394ZM390.451 201.394H370.01V202.394H390.451V201.394ZM413.48 147.884H401.611V148.884H413.48V147.884ZM414.48 200.039V148.884H413.48V200.039H414.48ZM401.611 201.039H413.48V200.039H401.611V201.039ZM400.611 148.884V200.039H401.611V148.884H400.611ZM505.915 171.933C499.217 170.806 495.256 168.918 492.924 167.011C490.602 165.113 489.872 163.18 489.666 161.897L488.678 162.056C488.922 163.57 489.772 165.726 492.291 167.786C494.801 169.837 498.945 171.774 505.749 172.919L505.915 171.933ZM510.375 173.689C509.114 172.556 507.426 172.188 505.915 171.933L505.749 172.919C507.265 173.175 508.683 173.513 509.706 174.433L510.375 173.689ZM508.447 198.217C513.379 194.179 515.141 189.185 515.024 184.627C514.907 180.093 512.929 175.984 510.375 173.689L509.706 174.433C512.038 176.528 513.913 180.368 514.024 184.653C514.134 188.914 512.498 193.609 507.814 197.443L508.447 198.217ZM491.116 201.182C494.924 201.546 502.12 202.247 508.399 198.252L507.862 197.408C501.907 201.198 495.043 200.553 491.211 200.187L491.116 201.182ZM491.081 201.177L491.081 201.177L491.245 200.191L491.245 200.191L491.081 201.177ZM489.165 201.039C489.62 201.039 490.272 201.101 491.115 201.182L491.211 200.187C490.389 200.108 489.68 200.039 489.165 200.039V201.039ZM479.78 198.419C480.876 198.892 482.544 199.544 484.266 200.078C485.976 200.608 487.792 201.039 489.165 201.039V200.039C487.953 200.039 486.259 199.649 484.563 199.123C482.88 198.601 481.246 197.963 480.176 197.501L479.78 198.419ZM479.182 191.42V197.505H480.182V191.42H479.182ZM487.74 192.793C485.642 192.142 482.432 191.146 480.796 190.418L480.389 191.332C482.093 192.09 485.375 193.106 487.444 193.748L487.74 192.793ZM489.323 193.292C488.98 193.177 488.417 193.003 487.74 192.793L487.444 193.748C488.127 193.96 488.676 194.13 489.007 194.24L489.323 193.292ZM504.431 190.666C503.66 191.284 502.463 191.812 501.024 192.239C499.596 192.663 497.972 192.976 496.381 193.186C494.791 193.395 493.245 193.499 491.976 193.509C490.682 193.52 489.743 193.432 489.323 193.292L489.007 194.24C489.603 194.439 490.696 194.52 491.984 194.509C493.297 194.499 494.884 194.391 496.512 194.177C498.138 193.963 499.816 193.641 501.309 193.198C502.792 192.757 504.135 192.184 505.056 191.447L504.431 190.666ZM497.847 178.672C501.538 179.614 503.958 182.045 505.054 184.543C506.168 187.083 505.867 189.518 504.431 190.666L505.056 191.447C507.007 189.886 507.166 186.868 505.969 184.141C504.755 181.373 502.095 178.724 498.094 177.703L497.847 178.672ZM495.212 178.144C496.238 178.328 497.129 178.488 497.847 178.672L498.094 177.703C497.334 177.509 496.403 177.342 495.388 177.16L495.212 178.144ZM479.216 168.207C482.149 175.834 490.21 177.246 495.212 178.144L495.388 177.16C490.275 176.242 482.851 174.874 480.149 167.848L479.216 168.207ZM486.165 150.687C483.789 152.384 481.168 154.47 479.585 157.283C477.984 160.13 477.472 163.673 479.216 168.207L480.149 167.848C478.506 163.576 479.01 160.346 480.457 157.773C481.922 155.168 484.381 153.19 486.746 151.5L486.165 150.687ZM512.942 151.887C507.453 148.106 501.075 147.585 495.953 148.102C493.388 148.361 491.124 148.882 489.42 149.394C488.568 149.65 487.853 149.906 487.308 150.127C486.78 150.341 486.372 150.539 486.165 150.687L486.746 151.5C486.847 151.428 487.155 151.268 487.684 151.053C488.197 150.845 488.882 150.6 489.708 150.352C491.359 149.855 493.561 149.349 496.053 149.097C501.046 148.593 507.154 149.115 512.374 152.711L512.942 151.887ZM513.372 158.287V152.707H512.372V158.287H513.372ZM499.325 154.98C501.039 154.98 503.39 155.569 505.728 156.401C508.056 157.23 510.315 158.28 511.828 159.162L512.331 158.298C510.757 157.38 508.44 156.305 506.064 155.459C503.698 154.617 501.215 153.98 499.325 153.98V154.98ZM499.193 154.978C499.244 154.979 499.291 154.98 499.325 154.98V153.98C499.304 153.98 499.27 153.98 499.214 153.978L499.193 154.978ZM489.666 161.903C489.739 160.1 490.29 158.791 491.072 157.829C491.859 156.861 492.903 156.215 494.003 155.785C496.215 154.92 498.56 154.965 499.193 154.978L499.214 153.978C498.57 153.965 496.05 153.91 493.639 154.853C492.427 155.327 491.221 156.061 490.296 157.199C489.367 158.342 488.748 159.862 488.667 161.863L489.666 161.903ZM570.268 200.039V165.428H569.268V200.039H570.268ZM557.399 201.039H569.268V200.039H557.399V201.039ZM556.399 166.059V200.039H557.399V166.059H556.399ZM572.478 149.239C567.933 149.239 564.259 152.126 561.581 155.574C558.897 159.029 557.137 163.141 556.431 165.807L557.398 166.063C558.074 163.512 559.778 159.525 562.37 156.187C564.969 152.841 568.385 150.239 572.478 150.239V149.239ZM590.943 149.239H572.478V150.239H590.943V149.239ZM591.943 154.658V150.239H590.943V154.658H591.943ZM579.293 155.658H590.943V154.658H579.293V155.658ZM570.269 165.427C573.466 158.547 576.848 156.084 579.297 155.657L579.125 154.672C576.192 155.183 572.609 158.018 569.362 165.006L570.269 165.427ZM609.849 183.247L642.761 165.966L642.297 165.081L609.384 182.361L609.849 183.247ZM622.412 189.916C620.594 190.078 618.108 189.217 615.7 187.862C613.308 186.516 611.1 184.743 609.844 183.209L609.07 183.842C610.426 185.498 612.742 187.345 615.21 188.733C617.661 190.113 620.369 191.101 622.501 190.912L622.412 189.916ZM638.388 182.026C632.484 188.621 626.469 189.555 622.412 189.916L622.501 190.912C626.679 190.54 632.989 189.557 639.133 182.693L638.388 182.026ZM643.067 181.773C642.089 181.475 641.364 181.359 640.704 181.376C640.045 181.394 639.483 181.546 638.853 181.731L639.135 182.69C639.76 182.507 640.213 182.39 640.731 182.376C641.246 182.362 641.858 182.45 642.776 182.73L643.067 181.773ZM643.393 186.481C643.585 185.936 643.703 184.908 643.721 184.023C643.731 183.573 643.715 183.128 643.661 182.77C643.634 182.594 643.595 182.416 643.535 182.264C643.484 182.136 643.372 181.906 643.127 181.796L642.715 182.707C642.588 182.649 642.575 182.558 642.606 182.634C642.626 182.685 642.651 182.778 642.672 182.919C642.714 183.198 642.73 183.58 642.722 184.002C642.704 184.863 642.587 185.76 642.449 186.149L643.393 186.481ZM631.592 196.262C635.043 194.882 637.812 192.932 639.802 191.093C640.797 190.173 641.602 189.278 642.201 188.489C642.795 187.709 643.207 187.01 643.393 186.481L642.449 186.149C642.314 186.534 641.973 187.138 641.405 187.884C640.844 188.622 640.08 189.475 639.123 190.359C637.21 192.126 634.543 194.005 631.221 195.334L631.592 196.262ZM608.213 195.593C615.821 198.223 624.665 199.033 631.592 196.262L631.221 195.334C624.601 197.982 616.022 197.235 608.54 194.648L608.213 195.593ZM595.007 172.767C594.999 176.645 595.999 181.538 598.136 185.86C600.273 190.18 603.578 193.991 608.213 195.593L608.54 194.648C604.239 193.161 601.1 189.598 599.032 185.416C596.965 181.236 595.999 176.497 596.007 172.77L595.007 172.767ZM615.743 148.569C607.731 149.95 602.594 154.275 599.44 159.118C596.296 163.946 595.123 169.287 595.008 172.752L596.007 172.785C596.117 169.477 597.247 164.319 600.278 159.664C603.3 155.024 608.209 150.882 615.912 149.554L615.743 148.569ZM643.225 164.722C641.853 161.335 638.919 156.632 634.365 153.105C629.797 149.568 623.596 147.215 615.743 148.569L615.912 149.554C623.453 148.254 629.375 150.506 633.752 153.896C638.144 157.296 640.98 161.845 642.298 165.098L643.225 164.722ZM632.684 162.503L607.115 179.131L607.66 179.969L633.229 163.341L632.684 162.503ZM608.46 160.062C613.206 155.285 618.077 154.653 622.338 155.806C626.641 156.97 630.363 159.969 632.688 162.517L633.427 161.844C631.032 159.217 627.154 156.072 622.599 154.84C618.002 153.597 612.757 154.317 607.751 159.358L608.46 160.062ZM603.578 173.249C602.524 169.739 603.984 164.569 608.46 160.062L607.751 159.358C603.119 164.021 601.425 169.555 602.621 173.537L603.578 173.249ZM607.148 179.141C605.734 178.005 604.297 175.642 603.578 173.249L602.621 173.537C603.377 176.055 604.902 178.619 606.521 179.921L607.148 179.141ZM381.968 192.589L381.968 166.841L380.968 166.841L380.968 192.589L381.968 192.589ZM378.759 193.589H380.968V192.589H378.759V193.589ZM351.865 169.91C350.028 175.77 352.349 181.384 357.298 185.659C362.24 189.927 369.834 192.904 378.72 193.587L378.797 192.59C370.072 191.919 362.696 189 357.952 184.902C353.214 180.811 351.133 175.587 352.819 170.209L351.865 169.91ZM381.759 166.231C376.261 159.092 369.805 156.738 364.161 157.864C358.537 158.986 353.863 163.537 351.865 169.91L352.819 170.209C354.728 164.12 359.153 159.883 364.356 158.845C369.539 157.811 375.64 159.925 380.967 166.841L381.759 166.231ZM607.115 179.131C607.114 179.132 607.115 179.13 607.12 179.13C607.123 179.13 607.128 179.131 607.133 179.133C607.138 179.135 607.143 179.138 607.148 179.141L606.521 179.921C606.863 180.196 607.324 180.188 607.66 179.969L607.115 179.131ZM633.229 163.341C633.733 163.013 633.847 162.304 633.427 161.844L632.688 162.517C632.688 162.518 632.687 162.517 632.687 162.515C632.686 162.514 632.685 162.512 632.685 162.511C632.684 162.508 632.684 162.505 632.684 162.504C632.684 162.504 632.684 162.503 632.685 162.502C632.685 162.501 632.685 162.502 632.684 162.503L633.229 163.341ZM639.133 182.693C639.134 182.692 639.135 182.691 639.136 182.69C639.138 182.689 639.137 182.69 639.135 182.69L638.853 181.731C638.671 181.785 638.51 181.889 638.388 182.026L639.133 182.693ZM579.293 154.658C579.239 154.658 579.183 154.662 579.125 154.672L579.297 155.657C579.293 155.658 579.291 155.658 579.293 155.658V154.658ZM590.943 150.239L590.943 150.239H591.943C591.943 149.687 591.496 149.239 590.943 149.239V150.239ZM480.182 191.42C480.182 191.433 480.176 191.398 480.246 191.358C480.277 191.34 480.31 191.329 480.339 191.327C480.366 191.324 480.383 191.329 480.389 191.332L480.796 190.418C480.428 190.254 480.03 190.326 479.741 190.494C479.452 190.664 479.182 190.987 479.182 191.42H480.182ZM480.176 197.501C480.178 197.501 480.181 197.503 480.182 197.505C480.183 197.507 480.182 197.507 480.182 197.505H479.182C479.182 197.897 479.411 198.259 479.78 198.419L480.176 197.501ZM489.666 161.897C489.667 161.902 489.666 161.904 489.666 161.903L488.667 161.863C488.665 161.924 488.668 161.989 488.678 162.056L489.666 161.897ZM401.611 200.039L401.611 200.039H400.611C400.611 200.592 401.059 201.039 401.611 201.039V200.039ZM413.48 200.039L413.48 200.039V201.039C414.033 201.039 414.48 200.592 414.48 200.039H413.48ZM401.611 147.884C401.059 147.884 400.611 148.332 400.611 148.884H401.611L401.611 148.884V147.884ZM391.451 165.399C391.451 165.294 391.435 165.188 391.399 165.083L390.452 165.402C390.451 165.402 390.451 165.4 390.451 165.399C390.451 165.397 390.451 165.397 390.451 165.399H391.451ZM435.223 165.049C435.176 165.17 435.155 165.291 435.155 165.411H436.155C436.155 165.408 436.155 165.408 436.155 165.411C436.154 165.413 436.154 165.416 436.153 165.418L435.223 165.049ZM460.539 165.399C460.539 165.294 460.523 165.188 460.488 165.083L459.54 165.402C459.54 165.401 459.54 165.4 459.539 165.399C459.539 165.397 459.539 165.397 459.539 165.399H460.539ZM642.761 165.966C643.201 165.736 643.421 165.207 643.225 164.722L642.298 165.098C642.297 165.097 642.296 165.094 642.296 165.09C642.296 165.086 642.297 165.083 642.298 165.082C642.299 165.078 642.3 165.079 642.297 165.081L642.761 165.966ZM460.539 200.039L460.539 200.039H459.539C459.539 200.592 459.987 201.039 460.539 201.039V200.039ZM609.384 182.361C608.857 182.638 608.661 183.343 609.07 183.842L609.844 183.209C609.845 183.211 609.849 183.217 609.851 183.225C609.852 183.232 609.852 183.238 609.851 183.241C609.85 183.247 609.846 183.248 609.849 183.247L609.384 182.361ZM471.054 200.039L471.054 200.039V201.039C471.606 201.039 472.054 200.592 472.054 200.039H471.054ZM590.943 154.658L590.943 154.658V155.658C591.496 155.658 591.943 155.21 591.943 154.658H590.943ZM448.509 147.531C448.506 147.531 448.505 147.531 448.506 147.531L448.625 146.538C448.573 146.532 448.518 146.529 448.461 146.532L448.509 147.531ZM435.155 201.039C435.707 201.039 436.155 200.592 436.155 200.039H435.155L435.155 200.039V201.039ZM557.399 166.059C557.399 166.057 557.399 166.057 557.399 166.059C557.399 166.06 557.398 166.062 557.398 166.063L556.431 165.807C556.409 165.893 556.399 165.977 556.399 166.059H557.399ZM423.963 200.039L423.963 200.039H422.963C422.963 200.592 423.411 201.039 423.963 201.039V200.039ZM557.399 200.039L557.399 200.039H556.399C556.399 200.592 556.847 201.039 557.399 201.039V200.039ZM541.82 148.562L541.82 148.562H540.82C540.82 149.114 541.268 149.562 541.82 149.562V148.562ZM570.268 165.428L570.269 165.427L569.362 165.006C569.301 165.137 569.268 165.282 569.268 165.428H570.268ZM552.658 149.562C552.658 149.009 552.21 148.562 551.658 148.562V149.562L551.658 149.562H552.658ZM381.968 166.841C381.968 166.619 381.892 166.403 381.759 166.231L380.967 166.841C380.967 166.84 380.967 166.841 380.968 166.843C380.968 166.844 380.968 166.844 380.968 166.841L381.968 166.841ZM413.48 148.884L413.48 148.884H414.48C414.48 148.332 414.033 147.884 413.48 147.884V148.884ZM569.268 200.039L569.268 200.039V201.039C569.821 201.039 570.268 200.592 570.268 200.039H569.268ZM551.658 156.335C552.21 156.335 552.658 155.887 552.658 155.335H551.658L551.658 155.335V156.335ZM380.968 192.589L380.968 192.589V193.589C381.52 193.589 381.968 193.141 381.968 192.589L380.968 192.589ZM369.787 202.369C369.862 202.386 369.936 202.394 370.01 202.394V201.394C370.009 201.394 370.009 201.394 370.01 201.394C370.011 201.394 370.011 201.394 370.012 201.394L369.787 202.369ZM541.82 156.335L541.82 156.335V155.335C541.268 155.335 540.82 155.783 540.82 156.335H541.82ZM540.82 201.039C541.372 201.039 541.82 200.592 541.82 200.039H540.82L540.82 200.039V201.039ZM512.372 158.287C512.372 158.29 512.372 158.291 512.372 158.29C512.372 158.29 512.372 158.29 512.372 158.289C512.372 158.289 512.372 158.289 512.372 158.289C512.372 158.289 512.369 158.293 512.363 158.297C512.356 158.301 512.349 158.302 512.344 158.302C512.341 158.302 512.337 158.302 512.331 158.298L511.828 159.162C512.489 159.548 513.372 159.093 513.372 158.287H512.372ZM528.628 200.039C528.628 200.592 529.076 201.039 529.628 201.039V200.039L529.628 200.039H528.628ZM512.374 152.711C512.374 152.71 512.373 152.71 512.373 152.709C512.372 152.709 512.372 152.709 512.372 152.709C512.372 152.709 512.372 152.708 512.372 152.708C512.372 152.708 512.372 152.708 512.372 152.707H513.372C513.372 152.381 513.212 152.073 512.942 151.887L512.374 152.711ZM528.628 156.335L528.628 156.335H529.628C529.628 155.783 529.18 155.335 528.628 155.335V156.335ZM517.113 155.335C517.113 155.887 517.561 156.335 518.113 156.335V155.335L518.113 155.335H517.113ZM518.113 148.562C517.561 148.562 517.113 149.009 517.113 149.562H518.113L518.113 149.562V148.562ZM528.628 148.562L528.628 148.562V149.562C529.18 149.562 529.628 149.114 529.628 148.562H528.628ZM540.82 124.5L540.82 124.5H541.82C541.82 123.948 541.372 123.5 540.82 123.5V124.5ZM390.451 201.394L390.451 201.394V202.394C391.003 202.394 391.451 201.946 391.451 201.394H390.451ZM529.628 123.5C529.076 123.5 528.628 123.948 528.628 124.5H529.628L529.628 124.5V123.5Z" fill="#9B9B9B"/>
<path d="M254.2 244.52V235.48H268.24V232.08H254.2V223.48H269.96V220H250.2V248H270.52V244.52H254.2ZM287.757 226.6C284.397 226.6 281.677 227.84 280.117 230V226.8H276.437V248H280.277V237.08C280.277 232.48 282.917 230.04 286.997 230.04C290.637 230.04 292.717 232.08 292.717 236.24V248H296.557V235.8C296.557 229.56 292.917 226.6 287.757 226.6ZM322.941 237.52C322.941 231 318.581 226.6 312.461 226.6C306.341 226.6 301.821 231.12 301.821 237.4C301.821 243.72 306.381 248.24 313.221 248.24C316.741 248.24 319.661 247.04 321.581 244.8L319.461 242.32C317.901 244.04 315.821 244.88 313.341 244.88C309.141 244.88 306.141 242.4 305.661 238.68H322.861C322.901 238.32 322.941 237.84 322.941 237.52ZM312.461 229.84C316.181 229.84 318.861 232.36 319.261 235.92H305.661C306.061 232.32 308.781 229.84 312.461 229.84ZM331.953 230.36V226.8H328.273V248H332.113V237.44C332.113 232.8 334.673 230.28 338.793 230.28C339.073 230.28 339.353 230.28 339.673 230.32V226.6C335.953 226.6 333.313 227.88 331.953 230.36ZM360.85 226.8V230.08C359.05 227.76 356.17 226.6 353.01 226.6C346.89 226.6 342.25 230.72 342.25 236.84C342.25 242.96 346.89 247.12 353.01 247.12C356.05 247.12 358.81 246.04 360.65 243.84V245.52C360.65 250.32 358.37 252.64 353.37 252.64C350.25 252.64 347.17 251.56 345.21 249.88L343.37 252.84C345.69 254.92 349.61 256 353.49 256C360.69 256 364.49 252.6 364.49 245.12V226.8H360.85ZM353.45 243.76C349.17 243.76 346.13 240.92 346.13 236.84C346.13 232.72 349.17 229.96 353.45 229.96C357.69 229.96 360.73 232.72 360.73 236.84C360.73 240.92 357.69 243.76 353.45 243.76ZM386.828 226.8L379.508 243.76L372.108 226.8H368.107L377.468 247.96L376.788 249.44C375.748 251.88 374.588 252.72 372.748 252.72C371.308 252.72 369.988 252.16 368.948 251.16L367.307 254.04C368.628 255.32 370.708 256 372.748 256C375.988 256 378.428 254.6 380.308 250.12L390.588 226.8H386.828ZM435.118 248.32C442.518 248.32 445.958 244.64 445.958 240.36C445.958 230.08 428.998 234.36 428.998 227.52C428.998 225.08 431.038 223.08 435.798 223.08C438.278 223.08 441.038 223.8 443.478 225.36L444.798 222.16C442.478 220.56 439.078 219.68 435.798 219.68C428.438 219.68 425.078 223.36 425.078 227.68C425.078 238.08 442.038 233.76 442.038 240.6C442.038 243.04 439.958 244.92 435.118 244.92C431.518 244.92 427.958 243.56 425.878 241.68L424.398 244.8C426.638 246.88 430.838 248.32 435.118 248.32ZM460.322 248.24C466.682 248.24 471.322 243.72 471.322 237.4C471.322 231.08 466.682 226.6 460.322 226.6C453.962 226.6 449.282 231.08 449.282 237.4C449.282 243.72 453.962 248.24 460.322 248.24ZM460.322 244.88C456.242 244.88 453.162 241.92 453.162 237.4C453.162 232.88 456.242 229.96 460.322 229.96C464.402 229.96 467.442 232.88 467.442 237.4C467.442 241.92 464.402 244.88 460.322 244.88ZM476.632 248H480.472V218.32H476.632V248ZM503.724 226.8V237.76C503.724 242.32 501.164 244.8 497.164 244.8C493.524 244.8 491.444 242.72 491.444 238.56V226.8H487.604V239C487.604 245.24 491.244 248.24 496.724 248.24C499.724 248.24 502.364 247 503.924 244.8V248H507.564V226.8H503.724ZM525.594 244C524.794 244.64 523.714 245 522.594 245C520.474 245 519.274 243.72 519.274 241.44V229.96H525.354V226.8H519.274V222.16H515.434V226.8H511.834V229.96H515.434V241.6C515.434 245.88 517.874 248.24 522.154 248.24C523.874 248.24 525.634 247.76 526.794 246.76L525.594 244ZM533.357 222.72C534.877 222.72 535.957 221.6 535.957 220.16C535.957 218.8 534.837 217.72 533.357 217.72C531.877 217.72 530.757 218.84 530.757 220.24C530.757 221.64 531.877 222.72 533.357 222.72ZM531.437 248H535.277V226.8H531.437V248ZM551.689 248.24C558.049 248.24 562.689 243.72 562.689 237.4C562.689 231.08 558.049 226.6 551.689 226.6C545.329 226.6 540.649 231.08 540.649 237.4C540.649 243.72 545.329 248.24 551.689 248.24ZM551.689 244.88C547.609 244.88 544.529 241.92 544.529 237.4C544.529 232.88 547.609 229.96 551.689 229.96C555.769 229.96 558.809 232.88 558.809 237.4C558.809 241.92 555.769 244.88 551.689 244.88ZM579.319 226.6C575.959 226.6 573.239 227.84 571.679 230V226.8H567.999V248H571.839V237.08C571.839 232.48 574.479 230.04 578.559 230.04C582.199 230.04 584.279 232.08 584.279 236.24V248H588.119V235.8C588.119 229.56 584.479 226.6 579.319 226.6ZM601.306 248.24C606.946 248.24 610.466 245.8 610.466 241.96C610.466 233.72 597.026 237.8 597.026 232.8C597.026 231.12 598.666 229.88 602.026 229.88C604.106 229.88 606.226 230.32 608.146 231.56L609.786 228.52C607.946 227.32 604.826 226.6 602.066 226.6C596.626 226.6 593.226 229.16 593.226 232.96C593.226 241.4 606.626 237.28 606.626 242.04C606.626 243.84 605.146 244.92 601.586 244.92C598.826 244.92 595.946 244 594.146 242.72L592.546 245.76C594.306 247.16 597.786 248.24 601.306 248.24ZM648.052 248H667.212V244.52H652.052V220H648.052V248ZM673.162 222.72C674.682 222.72 675.762 221.6 675.762 220.16C675.762 218.8 674.642 217.72 673.162 217.72C671.682 217.72 670.562 218.84 670.562 220.24C670.562 221.64 671.682 222.72 673.162 222.72ZM671.242 248H675.082V226.8H671.242V248ZM708.933 226.6C705.333 226.6 702.373 228.12 700.773 230.52C699.373 227.88 696.653 226.6 693.413 226.6C690.213 226.6 687.613 227.8 686.093 229.96V226.8H682.413V248H686.253V237.08C686.253 232.48 688.773 230.04 692.613 230.04C696.093 230.04 698.093 232.08 698.093 236.24V248H701.933V237.08C701.933 232.48 704.453 230.04 708.293 230.04C711.773 230.04 713.773 232.08 713.773 236.24V248H717.613V235.8C717.613 229.56 714.093 226.6 708.933 226.6ZM726.599 222.72C728.119 222.72 729.199 221.6 729.199 220.16C729.199 218.8 728.079 217.72 726.599 217.72C725.119 217.72 723.999 218.84 723.999 220.24C723.999 221.64 725.119 222.72 726.599 222.72ZM724.679 248H728.519V226.8H724.679V248ZM746.571 244C745.771 244.64 744.691 245 743.571 245C741.451 245 740.251 243.72 740.251 241.44V229.96H746.331V226.8H740.251V222.16H736.411V226.8H732.811V229.96H736.411V241.6C736.411 245.88 738.851 248.24 743.131 248.24C744.851 248.24 746.611 247.76 747.771 246.76L746.571 244ZM770.87 237.52C770.87 231 766.51 226.6 760.39 226.6C754.27 226.6 749.75 231.12 749.75 237.4C749.75 243.72 754.31 248.24 761.15 248.24C764.67 248.24 767.59 247.04 769.51 244.8L767.39 242.32C765.83 244.04 763.75 244.88 761.27 244.88C757.07 244.88 754.07 242.4 753.59 238.68H770.79C770.83 238.32 770.87 237.84 770.87 237.52ZM760.39 229.84C764.11 229.84 766.79 232.36 767.19 235.92H753.59C753.99 232.32 756.71 229.84 760.39 229.84ZM792.363 218.32V230C790.603 227.72 787.963 226.6 784.963 226.6C778.763 226.6 774.243 230.92 774.243 237.4C774.243 243.88 778.763 248.24 784.963 248.24C788.083 248.24 790.803 247.04 792.523 244.64V248H796.203V218.32H792.363ZM785.283 244.88C781.203 244.88 778.123 241.92 778.123 237.4C778.123 232.88 781.203 229.96 785.283 229.96C789.323 229.96 792.403 232.88 792.403 237.4C792.403 241.92 789.323 244.88 785.283 244.88Z" fill="#F88754"/>
<defs>
<linearGradient id="paint0_linear" x1="-1.07721e-06" y1="120.49" x2="208.039" y2="178.432" gradientUnits="userSpaceOnUse">
<stop stop-color="#F6233D"/>
<stop offset="0.919372" stop-color="#F88754"/>
</linearGradient>
</defs>
</svg>
