<?xml version="1.0" encoding="iso-8859-1"?>
<!-- Generator: Adobe Illustrator 19.0.0, SVG Export Plug-In . SVG Version: 6.00 Build 0)  -->
<svg version="1.1" id="Capa_1" xmlns="http://www.w3.org/2000/svg" xmlns:xlink="http://www.w3.org/1999/xlink" x="0px" y="0px"
	 viewBox="0 0 512 512" style="enable-background:new 0 0 512 512;" xml:space="preserve">
<path style="fill:#E5E5E5;" d="M421,30H91c-24.901,0-45,20.099-45,45v392c0,24.901,20.099,45,45,45h330c24.901,0,45-20.099,45-45V75
	C466,50.099,445.901,30,421,30z"/>
<path style="fill:#D9D9D9;" d="M466,75v392c0,24.901-20.099,45-45,45H256V30h165C445.901,30,466,50.099,466,75z"/>
<g>
	<path style="fill:#896748;" d="M121,90c-8.291,0-15-6.709-15-15V15c0-8.291,6.709-15,15-15s15,6.709,15,15v60
		C136,83.291,129.291,90,121,90z"/>
	<path style="fill:#896748;" d="M211,90c-8.291,0-15-6.709-15-15V15c0-8.291,6.709-15,15-15s15,6.709,15,15v60
		C226,83.291,219.291,90,211,90z"/>
</g>
<g>
	<path style="fill:#73553A;" d="M301,90c-8.291,0-15-6.709-15-15V15c0-8.291,6.709-15,15-15s15,6.709,15,15v60
		C316,83.291,309.291,90,301,90z"/>
	<path style="fill:#73553A;" d="M391,90c-8.291,0-15-6.709-15-15V15c0-8.291,6.709-15,15-15s15,6.709,15,15v60
		C406,83.291,399.291,90,391,90z"/>
</g>
<g>
	<path style="fill:#A8AFF1;" d="M406,152c0,8.401-6.599,15-15,15H121c-8.401,0-15-6.599-15-15s6.599-15,15-15h270
		C399.401,137,406,143.599,406,152z"/>
	<path style="fill:#A8AFF1;" d="M406,242c0,8.401-6.599,15-15,15H121c-8.401,0-15-6.599-15-15s6.599-15,15-15h270
		C399.401,227,406,233.599,406,242z"/>
	<path style="fill:#A8AFF1;" d="M406,332c0,8.401-6.599,15-15,15H121c-8.401,0-15-6.599-15-15s6.599-15,15-15h270
		C399.401,317,406,323.599,406,332z"/>
	<path style="fill:#A8AFF1;" d="M406,422c0,8.401-6.599,15-15,15H121c-8.401,0-15-6.599-15-15s6.599-15,15-15h270
		C399.401,407,406,413.599,406,422z"/>
</g>
<g>
	<path style="fill:#97A1ED;" d="M406,422c0,8.401-6.599,15-15,15H256v-30h135C399.401,407,406,413.599,406,422z"/>
	<path style="fill:#97A1ED;" d="M406,332c0,8.401-6.599,15-15,15H256v-30h135C399.401,317,406,323.599,406,332z"/>
	<path style="fill:#97A1ED;" d="M406,242c0,8.401-6.599,15-15,15H256v-30h135C399.401,227,406,233.599,406,242z"/>
	<path style="fill:#97A1ED;" d="M391,167H256v-30h135c8.401,0,15,6.599,15,15S399.401,167,391,167z"/>
</g>
<g>
</g>
<g>
</g>
<g>
</g>
<g>
</g>
<g>
</g>
<g>
</g>
<g>
</g>
<g>
</g>
<g>
</g>
<g>
</g>
<g>
</g>
<g>
</g>
<g>
</g>
<g>
</g>
<g>
</g>
</svg>
