<?xml version="1.0" encoding="iso-8859-1"?>
<!-- Generator: Adobe Illustrator 19.0.0, SVG Export Plug-In . SVG Version: 6.00 Build 0)  -->
<svg version="1.1" id="Capa_1" xmlns="http://www.w3.org/2000/svg" xmlns:xlink="http://www.w3.org/1999/xlink" x="0px" y="0px"
	 viewBox="0 0 512 512" style="enable-background:new 0 0 512 512;" xml:space="preserve">
<path style="fill:#70B5E8;" d="M139.17,89.474c-4.204,0-7.612-3.407-7.612-7.612V44.911c0-4.204,3.408-7.612,7.612-7.612
	c4.204,0,7.612,3.407,7.612,7.612v36.953C146.782,86.067,143.374,89.474,139.17,89.474z"/>
<path style="fill:#F9F6ED;" d="M346.899,82.32c-10.008,0-293.437,0-300.556,0c-8.272,0-14.979,6.706-14.979,14.979
	c0,83.23,0,316.49,0,399.716c0,8.436,6.918,14.979,14.979,14.979c323.596,0,300.809,0.028,301.829-0.064
	c7.639-0.645,13.706-7.05,13.706-14.915c0-114.823,0-274.722,0-399.716C361.877,89.027,355.171,82.32,346.899,82.32z"/>
<path style="fill:#EFECE4;" d="M76.79,511.996c-8.061,0-14.979-6.543-14.979-14.979c0-83.226,0-316.487,0-399.716
	c0-8.273,6.707-14.979,14.979-14.979c-17.661,0-29.089,0-30.447,0c-8.272,0-14.979,6.706-14.979,14.979c0,83.23,0,316.49,0,399.716
	c0,8.436,6.918,14.978,14.979,14.979C76.79,512,35.303,512.001,76.79,512C32.118,511.998,76.79,511.996,76.79,511.996z"/>
<path style="fill:#666666;" d="M196.621,221.021H89.901c-4.204,0-7.612-3.407-7.612-7.612c0-4.204,3.408-7.612,7.612-7.612h106.719
	c4.204,0,7.612,3.408,7.612,7.612C204.233,217.613,200.825,221.021,196.621,221.021z"/>
<g>
	<path style="fill:#E2D9C7;" d="M250.615,303.322H119.842c-4.204,0-7.612-3.407-7.612-7.612c0-4.204,3.408-7.612,7.612-7.612
		h130.774c4.204,0,7.612,3.408,7.612,7.612C258.228,299.915,254.82,303.322,250.615,303.322z"/>
	<path style="fill:#E2D9C7;" d="M291.194,271.817H119.842c-4.204,0-7.612-3.407-7.612-7.612c0-4.204,3.408-7.612,7.612-7.612
		h171.352c4.204,0,7.612,3.408,7.612,7.612C298.806,268.41,295.398,271.817,291.194,271.817z"/>
	<path style="fill:#E2D9C7;" d="M227.296,334.828H119.842c-4.204,0-7.612-3.407-7.612-7.612c0-4.204,3.408-7.612,7.612-7.612
		h107.454c4.204,0,7.612,3.408,7.612,7.612S231.5,334.828,227.296,334.828z"/>
	<path style="fill:#E2D9C7;" d="M214.95,366.332h-95.108c-4.204,0-7.612-3.407-7.612-7.612c0-4.204,3.408-7.612,7.612-7.612h95.108
		c4.204,0,7.612,3.408,7.612,7.612C222.562,362.924,219.154,366.332,214.95,366.332z"/>
	<path style="fill:#E2D9C7;" d="M213.558,429.342h-93.716c-4.204,0-7.612-3.407-7.612-7.612c0-4.204,3.408-7.612,7.612-7.612h93.716
		c4.204,0,7.612,3.408,7.612,7.612C221.17,425.935,217.762,429.342,213.558,429.342z"/>
	<path style="fill:#E2D9C7;" d="M210.649,397.836h-90.807c-4.204,0-7.612-3.407-7.612-7.612c0-4.204,3.408-7.612,7.612-7.612h90.807
		c4.204,0,7.612,3.408,7.612,7.612C218.261,394.429,214.853,397.836,210.649,397.836z"/>
</g>
<g>
	<path style="fill:#666666;" d="M85.672,333.545c-2.913-1.924-4.236-5.836-2.801-9.236c2.871-6.953,12.961-5.918,14.493,1.421
		c0.837,4.017-1.851,8.169-5.978,8.941C90.427,334.872,87.432,334.702,85.672,333.545z"/>
	<path style="fill:#666666;" d="M89.904,397.839c-0.497,0-0.995-0.051-1.492-0.152c-0.487-0.102-0.964-0.244-1.421-0.437
		c-0.467-0.192-0.903-0.426-1.32-0.7c-0.416-0.275-0.802-0.589-1.157-0.944c-0.345-0.355-0.67-0.74-0.944-1.157
		c-0.274-0.416-0.507-0.852-0.7-1.319c-0.193-0.457-0.335-0.934-0.437-1.421c-0.091-0.487-0.142-0.994-0.142-1.482
		c0-0.498,0.051-1.005,0.142-1.492c0.102-0.488,0.244-0.964,0.437-1.421c0.193-0.467,0.426-0.903,0.7-1.319
		c0.274-0.416,0.599-0.802,0.944-1.157c0.355-0.345,0.741-0.67,1.157-0.945c0.416-0.273,0.853-0.507,1.32-0.7
		c0.456-0.193,0.934-0.335,1.421-0.436c0.984-0.193,1.999-0.193,2.973,0c0.488,0.101,0.964,0.243,1.421,0.436
		c0.467,0.192,0.903,0.426,1.319,0.7c0.416,0.275,0.802,0.6,1.157,0.945c0.355,0.355,0.669,0.74,0.943,1.157
		c0.274,0.416,0.507,0.852,0.701,1.319c0.193,0.457,0.335,0.934,0.436,1.421c0.102,0.487,0.152,0.994,0.152,1.492
		c0,0.488-0.051,0.995-0.152,1.482c-0.102,0.488-0.243,0.964-0.436,1.421c-0.193,0.467-0.427,0.903-0.701,1.319
		c-0.274,0.416-0.588,0.802-0.943,1.157c-0.355,0.356-0.741,0.67-1.157,0.944s-0.852,0.507-1.319,0.7
		c-0.457,0.193-0.934,0.335-1.421,0.437C90.898,397.789,90.401,397.839,89.904,397.839z"/>
	<path style="fill:#666666;" d="M85.672,270.569c-2.913-1.924-4.236-5.836-2.801-9.236c2.871-6.953,12.961-5.918,14.493,1.421
		c0.837,4.017-1.851,8.169-5.978,8.941C90.427,271.896,87.432,271.725,85.672,270.569z"/>
</g>
<path style="fill:#70B5E8;" d="M89.439,164.641c-17.908,0-32.477-14.569-32.477-32.477V44.911C56.962,20.146,77.108,0,101.871,0
	s44.911,20.146,44.911,44.911c0,4.204-3.408,7.612-7.612,7.612c-4.204,0-7.612-3.408-7.612-7.612
	c0-16.369-13.317-29.686-29.686-29.686S72.185,28.54,72.185,44.911v87.253c0,9.514,7.74,17.253,17.253,17.253
	c9.514,0,17.253-7.74,17.253-17.253V45.383c0-2.658-2.163-4.821-4.821-4.821s-4.821,2.163-4.821,4.821v87.095
	c0,4.204-3.408,7.612-7.612,7.612c-4.204,0-7.612-3.408-7.612-7.612V45.382c0-11.053,8.992-20.044,20.044-20.044
	s20.044,8.991,20.044,20.044v86.781C121.917,150.071,107.348,164.641,89.439,164.641z"/>
<g>
	<path style="fill:#EAE4D6;" d="M149.02,131.173h-0.254c-4.204,0-7.612-3.407-7.612-7.612s3.408-7.612,7.612-7.612h0.254
		c4.204,0,7.612,3.407,7.612,7.612S153.224,131.173,149.02,131.173z"/>
	<path style="fill:#EAE4D6;" d="M286.434,131.173h-0.484c-4.204,0-7.612-3.407-7.612-7.612s3.408-7.612,7.612-7.612h0.484
		c4.204,0,7.612,3.407,7.612,7.612S290.637,131.173,286.434,131.173z M252.081,131.173h-0.484c-4.204,0-7.612-3.407-7.612-7.612
		c0-10.124,15.708-10.179,15.708,0C259.693,127.765,256.285,131.173,252.081,131.173z M217.727,131.173h-0.484
		c-4.204,0-7.612-3.407-7.612-7.612c0-10.124,15.707-10.178,15.707,0C225.338,127.765,221.93,131.173,217.727,131.173z
		 M183.373,131.173h-0.484c-4.204,0-7.612-3.407-7.612-7.612s3.408-7.612,7.612-7.612h0.484c4.204,0,7.612,3.407,7.612,7.612
		S187.577,131.173,183.373,131.173z"/>
	<path style="fill:#EAE4D6;" d="M320.557,131.173h-0.254c-4.204,0-7.612-3.407-7.612-7.612s3.408-7.612,7.612-7.612h0.254
		c4.204,0,7.612,3.407,7.612,7.612S324.762,131.173,320.557,131.173z"/>
</g>
<g>
	<path style="fill:#CCCCCC;" d="M375.579,278.271v-36.112h-27.402v36.112C357.35,276.943,366.388,276.94,375.579,278.271z"/>
	<path style="fill:#CCCCCC;" d="M418.173,297.079c-3.628-2.124-4.846-6.787-2.722-10.415l15.492-26.455
		c2.125-3.626,6.788-4.849,10.415-2.722c3.627,2.124,4.846,6.787,2.722,10.415l-15.492,26.455
		C426.466,297.98,421.803,299.207,418.173,297.079z"/>
</g>
<path style="fill:#E6E6E6;" d="M442.775,275.714l-18.936-11.105c-3.626-2.127-4.842-6.791-2.715-10.417
	c2.127-3.627,6.79-4.843,10.417-2.716l18.936,11.106c3.626,2.127,4.842,6.791,2.715,10.417
	C451.055,276.642,446.384,277.83,442.775,275.714z"/>
<path style="fill:#666666;" d="M421.269,496.082c-56.722,32.748-129.511,13.245-162.26-43.478
	c-32.748-56.722-13.245-129.512,43.478-162.26c56.722-32.748,129.511-13.244,162.26,43.478
	C497.495,390.544,477.991,463.333,421.269,496.082z"/>
<path style="fill:#595A5B;" d="M282.756,438.894c-30.43-52.707-15.737-119.279,32.001-154.715c-4.157,1.8-8.255,3.847-12.271,6.166
	c-56.722,32.748-76.226,105.537-43.478,162.26s105.537,76.226,162.259,43.478c4.016-2.319,7.838-4.844,11.475-7.544
	C378.185,512.162,313.185,491.6,282.756,438.894z"/>
<path style="fill:#E6E6E6;" d="M378.63,246.436h-33.506c-7.567,0-13.701-6.134-13.701-13.701s6.134-13.701,13.701-13.701h33.506
	c7.567,0,13.701,6.134,13.701,13.701S386.197,246.436,378.63,246.436z"/>
<path style="fill:#CCCCCC;" d="M361.877,232.735c0-7.567,6.134-13.701,13.701-13.701h-30.454c-7.567,0-13.701,6.134-13.701,13.701
	s6.134,13.701,13.701,13.701h30.454C368.011,246.436,361.877,240.302,361.877,232.735z"/>
<path style="fill:#E6E6E6;" d="M316.187,314.076c-43.637,25.193-58.641,81.191-33.447,124.827
	c25.193,43.636,81.19,58.641,124.827,33.447c43.637-25.193,58.641-81.19,33.447-124.827
	C415.821,303.887,359.824,288.883,316.187,314.076z"/>
<path style="fill:#CCCCCC;" d="M335.478,408.456c-19.857-34.394-14.736-76.464,9.69-105.08c-9.941,1.839-19.737,5.365-28.979,10.701
	c-43.637,25.193-58.641,81.19-33.447,124.827c25.193,43.637,81.19,58.641,124.827,33.447c9.242-5.336,17.194-12.057,23.757-19.746
	C394.329,459.449,355.335,442.85,335.478,408.456z"/>
<path style="fill:#FC7777;" d="M346.898,426.674c-5.792,0-9.517-6.303-6.597-11.398l47.106-82.183
	c2.091-3.647,6.745-4.907,10.389-2.819c3.647,2.09,4.91,6.742,2.819,10.389l-47.106,82.183
	C352.102,425.3,349.537,426.674,346.898,426.674z"/>
<circle style="fill:#F94A46;" cx="361.875" cy="392.935" r="17.592"/>
<path style="fill:#EA3B3B;" d="M359.526,384.191c-0.01-3.226,0.864-6.242,2.371-8.846c-0.024,0-0.048-0.003-0.072-0.003
	c-9.716,0.03-17.567,7.931-17.536,17.647c0.03,9.716,7.931,17.567,17.647,17.537c6.49-0.02,12.133-3.562,15.166-8.801
	C367.419,401.715,359.557,393.882,359.526,384.191z"/>
<g>
</g>
<g>
</g>
<g>
</g>
<g>
</g>
<g>
</g>
<g>
</g>
<g>
</g>
<g>
</g>
<g>
</g>
<g>
</g>
<g>
</g>
<g>
</g>
<g>
</g>
<g>
</g>
<g>
</g>
</svg>
